<?xml version="1.0" encoding="utf-8"?>
<!-- Generator: Adobe Illustrator 23.1.1, SVG Export Plug-In . SVG Version: 6.00 Build 0)  -->
<!DOCTYPE svg PUBLIC "-//W3C//DTD SVG 1.1//EN" "http://www.w3.org/Graphics/SVG/1.1/DTD/svg11.dtd" [
	<!ENTITY ns_extend "http://ns.adobe.com/Extensibility/1.0/">
	<!ENTITY ns_ai "http://ns.adobe.com/AdobeIllustrator/10.0/">
	<!ENTITY ns_graphs "http://ns.adobe.com/Graphs/1.0/">
	<!ENTITY ns_vars "http://ns.adobe.com/Variables/1.0/">
	<!ENTITY ns_imrep "http://ns.adobe.com/ImageReplacement/1.0/">
	<!ENTITY ns_sfw "http://ns.adobe.com/SaveForWeb/1.0/">
	<!ENTITY ns_custom "http://ns.adobe.com/GenericCustomNamespace/1.0/">
	<!ENTITY ns_adobe_xpath "http://ns.adobe.com/XPath/1.0/">
]>
<svg version="1.1" id="Layer_1" xmlns:x="&ns_extend;" xmlns:i="&ns_ai;" xmlns:graph="&ns_graphs;"
	 xmlns="http://www.w3.org/2000/svg" xmlns:xlink="http://www.w3.org/1999/xlink" x="0px" y="0px" width="100px" height="100px"
	 viewBox="0 0 100 100" style="enable-background:new 0 0 100 100;" xml:space="preserve">
<style type="text/css">
	.st0{fill:#33A8FF;}
	.st1{fill:#33A8FF;stroke:#FFFFFF;stroke-width:1.1921;stroke-miterlimit:10;}
	.st2{fill:#FFFFFF;}
	.st3{font-family:'Nevo-Bold';}
	.st4{font-size:13px;}
</style>
<metadata>
	<sfw  xmlns="&ns_sfw;">
		<slices></slices>
		<sliceSourceBounds  bottomLeftOrigin="true" height="97.6" width="97.6" x="1.3" y="1.2"></sliceSourceBounds>
	</sfw>
</metadata>
<g>
	<g>
		<circle class="st0" cx="50.1" cy="50" r="48.2"/>
		<circle class="st1" cx="50.1" cy="50" r="48.2"/>
	</g>
</g>
<text transform="matrix(1 0 0 1 16.6875 70.1671)"><tspan x="0" y="0" class="st2 st3 st4">Waterside</tspan><tspan x="15.6" y="14" class="st2 st3 st4">Drive</tspan></text>
<g id="mbyZnV.tif">
	<g>
		<path class="st2" d="M49,33.8c-0.7,0-1.4-0.1-2-0.3c-1.9-0.6-3.1-1.9-3.5-3.6c-0.4-1.9,0-3.4,1.3-4.6c0.3-0.3,0.7-0.5,1-0.6
			c0.1,0,0.2-0.1,0.3-0.1c0.3,0,0.6,0.2,0.7,0.5c0.2,0.4,0,0.9-0.5,1.1c-1.1,0.5-1.3,1.6-1.4,1.9c-0.2,1-0.1,2.9,2.4,3.8
			c0.5,0.2,1,0.3,1.6,0.3c1.6,0,3.2-0.8,4.2-2.1c1.5-2,2.1-5.7,0.4-8.2c-1.3-2-3.1-3-5.5-3.1c-0.2,0-0.4,0-0.5,0
			c-1.8,0-3.4,0.4-4.9,1.2c-1.2,0.7-2.4,1.6-3.4,2.8c-0.7,0.8-1.4,1.6-2.1,2.4c-0.7,0.8-1.4,1.5-2,2.3c-1.7,1.8-3.2,3-4.9,3.8
			c-0.9,0.4-1.8,0.7-2.8,0.8c-0.1,0-0.1,0-0.2,0c-0.3,0-0.5-0.1-0.7-0.4c-0.2-0.3-0.2-0.6,0-0.9c0.2-0.3,0.4-0.3,0.5-0.4
			c1.9-0.2,3.7-1.1,5.5-2.7c1.2-1.1,2.2-2.3,3.2-3.4l0.7-0.8c1.1-1.3,2.5-2.7,4.1-3.9c2-1.4,4.2-2.2,6.7-2.3c0.2,0,0.3,0,0.5,0
			c2,0,3.7,0.6,5.3,1.8c0.7,0.5,1.3,1.2,1.9,2l0.6,0.9l0.9-0.4c0.2-0.1,0.5-0.3,0.7-0.4c0.5-0.3,1-0.5,1.5-0.8
			c1.5-0.7,3.2-1.1,5-1.2c0.3,0,0.5,0,0.8,0c2.2,0,4.2,0.6,5.9,2c1.6,1.2,2.5,2.7,2.8,4.3c0.4,2.7-0.2,4.8-1.7,6.6
			c-0.9,1-2.1,1.6-3.8,1.9c-0.3,0-0.6,0.1-0.8,0.1c-0.8,0-1.6-0.2-2.3-0.6c-2-1.1-2.9-3.5-2-5.7c0.2-0.5,0.3-0.7,0.5-0.8
			c0.1-0.1,0.2-0.1,0.4-0.1c0.2,0,0.4,0.1,0.6,0.2c0.3,0.3,0.3,0.6,0.1,1c-0.7,1.4-0.2,3,1.1,3.8c0.2,0.1,0.5,0.3,0.8,0.3
			c0.3,0.1,0.6,0.1,0.9,0.1c1.4,0,2.6-0.6,3.4-1.6c1.3-1.8,1.6-4.7,0.5-6.5c-0.9-1.4-2.2-2.5-3.9-3c-0.9-0.3-1.9-0.4-2.8-0.4
			c-1.2,0-2.4,0.2-3.6,0.6c-1.2,0.4-2.4,1.1-3.7,1.9c-0.3,0.2-0.7,0.6-0.6,1.4c0.2,2-0.2,4-1.2,5.7C53.8,32.5,51.4,33.8,49,33.8z"/>
		<path class="st2" d="M27.2,52.6c-0.2,0-0.7-0.1-0.8-0.5c-0.1-0.4,0-0.7,0.1-0.8c0.1-0.2,0.3-0.3,0.5-0.3c1.5,0,3-0.5,4.7-1.4
			l0.5-0.3c1-0.6,2-1.1,3.1-1.5c1.1-0.4,2.2-0.6,3.3-0.6c1.3,0,2.7,0.3,4.1,1c0.8,0.4,1.5,0.8,2.2,1.2c0.4,0.2,0.8,0.4,1.2,0.6
			c1.3,0.7,2.5,1,3.8,1c0.3,0,0.5,0,0.8,0c1.3-0.1,2.4-0.7,3.3-1.1c0.3-0.2,0.7-0.4,1-0.5c0.9-0.5,1.8-0.9,2.7-1.3
			c1.1-0.5,2.3-0.7,3.5-0.7c0.5,0,1,0,1.6,0.1c1.5,0.3,2.9,0.9,4,1.6c0.8,0.5,1.7,0.9,2.6,1.3c1,0.5,2.1,0.7,3.3,0.7
			c0.4,0,0.7,0.3,0.8,0.8c0,0.3-0.2,0.7-0.5,0.8c-0.2,0-0.4,0-0.6,0c-0.3,0-0.6,0-0.8-0.1c-1.5-0.2-2.9-0.8-4.5-1.6l-0.2-0.1
			c-0.8-0.5-1.7-0.9-2.6-1.3c-1-0.4-2-0.6-3-0.6c-1.2,0-2.3,0.3-3.5,0.9c-0.6,0.3-1.2,0.6-1.7,0.9c-0.5,0.3-1,0.5-1.5,0.8
			c-1.6,0.8-3.1,1.2-4.6,1.2c-1.6,0-3.1-0.4-4.8-1.3c-0.6-0.3-1.1-0.6-1.7-0.9l-1-0.6c-1.2-0.7-2.5-1-3.8-1c-1.3,0-2.7,0.4-4,1.1
			c-1.2,0.7-2.4,1.3-3.6,1.9C29.8,52.4,28.5,52.6,27.2,52.6L27.2,52.6z"/>
		<path class="st2" d="M49.8,43.2c-0.2,0-0.5,0-0.7,0c-1.3-0.1-2.7-0.5-4.1-1.3c-0.8-0.4-1.7-0.9-2.5-1.3c-1.3-0.7-2.7-1.1-4-1.1
			c-1.4,0-2.8,0.4-4.1,1.2c-1.3,0.7-2.5,1.4-3.6,1.9c-1.1,0.5-2.2,0.7-3.4,0.7l-0.2,0c-0.4,0-0.8-0.3-0.8-0.6c0-0.4,0.1-0.9,0.6-1
			c0.2,0,0.4,0,0.6-0.1c0.2,0,0.4,0,0.6,0c1.3-0.2,2.4-0.7,3.5-1.3l0.8-0.4c0.8-0.4,1.7-0.9,2.5-1.3c1.1-0.5,2.3-0.7,3.6-0.7
			c1.6,0,3.2,0.4,5,1.4c0.3,0.2,0.6,0.3,0.9,0.5c0.7,0.4,1.5,0.8,2.2,1.1c1,0.5,2.1,0.7,3.2,0.7c1.1,0,2.2-0.3,3.2-0.8
			c0.7-0.3,1.4-0.7,2-1.1l0.4-0.2c1.1-0.6,2.4-1.2,3.8-1.5c0.6-0.1,1.3-0.2,1.9-0.2c1.4,0,2.7,0.3,4.1,1c0.7,0.3,1.5,0.7,2.2,1.1
			c0.3,0.2,0.6,0.3,1,0.5c1.4,0.8,2.7,1.1,4,1.2c0.3,0,0.6,0.1,0.7,0.4c0.1,0.2,0.2,0.5,0.1,0.7c-0.1,0.3-0.4,0.6-0.8,0.6
			c-1.5,0-3.1-0.4-4.8-1.4c-0.3-0.2-0.6-0.3-1-0.5c-0.8-0.4-1.6-0.9-2.4-1.2c-1-0.4-2-0.7-3-0.7c-1.2,0-2.3,0.3-3.5,0.9
			c-0.6,0.3-1.1,0.6-1.7,0.9c-0.6,0.3-1.3,0.7-1.9,1C52.6,42.9,51.2,43.2,49.8,43.2z"/>
	</g>
</g>
</svg>
